<svg width="79" height="24" viewBox="0 0 79 24" fill="none" xmlns="http://www.w3.org/2000/svg">
<path d="M29.888 0.439999H35.456L27.392 23H22.72L17.952 9.464L13.12 23H8.416L0.384 0.439999H6.368L11.04 14.744L16.096 0.439999H20.16L24.992 15L29.888 0.439999Z" fill="#F7AB73"/>
<path d="M38.267 23V11.216H41.891V23H38.267ZM38.147 5.552H42.035V8.936H38.147V5.552ZM45.6654 23V6.08H49.2894V23H45.6654ZM58.7279 23.192C57.4799 23.192 56.3839 22.944 55.4399 22.448C54.4959 21.936 53.7679 21.224 53.2559 20.312C52.7439 19.384 52.4879 18.296 52.4879 17.048C52.4879 15.8 52.7439 14.72 53.2559 13.808C53.7679 12.88 54.4959 12.168 55.4399 11.672C56.3839 11.176 57.4799 10.928 58.7279 10.928C59.9759 10.928 61.0719 11.176 62.0159 11.672C62.9599 12.168 63.6879 12.88 64.1999 13.808C64.7119 14.72 64.9679 15.8 64.9679 17.048C64.9679 18.296 64.7119 19.384 64.1999 20.312C63.6879 21.224 62.9599 21.936 62.0159 22.448C61.0719 22.944 59.9759 23.192 58.7279 23.192ZM58.7279 20.432C60.4879 20.432 61.3679 19.304 61.3679 17.048C61.3679 15.912 61.1359 15.064 60.6719 14.504C60.2239 13.944 59.5759 13.664 58.7279 13.664C56.9679 13.664 56.0879 14.792 56.0879 17.048C56.0879 19.304 56.9679 20.432 58.7279 20.432ZM73.4053 10.928C75.1653 10.928 76.4613 11.344 77.2933 12.176C78.1413 13.008 78.5653 14.296 78.5653 16.04V23H75.1333V21.248C74.8933 21.856 74.4933 22.336 73.9333 22.688C73.3733 23.024 72.7173 23.192 71.9653 23.192C71.1653 23.192 70.4373 23.032 69.7812 22.712C69.1413 22.392 68.6293 21.944 68.2453 21.368C67.8773 20.792 67.6933 20.152 67.6933 19.448C67.6933 18.584 67.9093 17.904 68.3413 17.408C68.7893 16.912 69.5013 16.552 70.4773 16.328C71.4533 16.104 72.7893 15.992 74.4853 15.992H75.1093V15.56C75.1093 14.856 74.9573 14.36 74.6533 14.072C74.3493 13.784 73.8213 13.64 73.0693 13.64C72.4933 13.64 71.8533 13.744 71.1493 13.952C70.4453 14.16 69.7733 14.448 69.1333 14.816L68.1733 12.392C68.8453 11.976 69.6693 11.632 70.6453 11.36C71.6373 11.072 72.5573 10.928 73.4053 10.928ZM72.7573 20.696C73.4613 20.696 74.0293 20.464 74.4613 20C74.8933 19.52 75.1093 18.904 75.1093 18.152V17.744H74.7013C73.4053 17.744 72.4933 17.848 71.9653 18.056C71.4533 18.264 71.1973 18.64 71.1973 19.184C71.1973 19.616 71.3413 19.976 71.6293 20.264C71.9333 20.552 72.3093 20.696 72.7573 20.696Z" fill="white"/>
</svg>
